# Blender 4.5.3 LTS
# www.blender.org
mtllib single-grass2.mtl
o Plane
v -0.028117 -0.009171 0.000035
v 0.028119 -0.009171 0.000035
v 0.000001 0.473879 0.000035
v -0.021582 0.162190 0.000035
v 0.021583 0.162190 0.000035
v 0.014916 0.328600 0.000035
v -0.014914 0.328600 0.000035
v 0.008179 0.428479 0.000035
v -0.008177 0.428479 0.000035
vn -1.0000 -0.0000 0.0001
vn 1.0000 -0.0000 0.0001
vn 1.0000 -0.0000 0.0094
vt 0.000000 0.906015
vt 1.000000 0.906015
vt 0.000000 1.000000
vt 0.000000 0.000000
vt 1.000000 0.000000
vt 1.000000 0.354749
vt 0.000000 0.354749
vt 1.000000 0.699247
vt 0.000000 0.699247
s 0
f 9/1/1 8/2/2 3/3/3
f 1/4/1 2/5/2 5/6/2 4/7/1
f 4/7/1 5/6/2 6/8/2 7/9/1
f 7/9/1 6/8/2 8/2/2 9/1/1
