# Blender 5.0.0
# www.blender.org
mtllib slash.mtl
o Cylinder
v 0.000000 -0.182084 -1.000000
v 0.000000 0.182084 -1.000000
v 0.195090 -0.182084 -0.980785
v 0.195090 0.182084 -0.980785
v 0.382683 -0.182084 -0.923880
v 0.382683 0.182084 -0.923880
v 0.555570 -0.182084 -0.831470
v 0.555570 0.182084 -0.831470
v 0.707107 -0.182084 -0.707107
v 0.707107 0.182084 -0.707107
v 0.831470 -0.182084 -0.555570
v 0.831470 0.182084 -0.555570
v 0.923880 -0.182084 -0.382683
v 0.923880 0.182084 -0.382683
v 0.980785 -0.182084 -0.195090
v 0.980785 0.182084 -0.195090
v 1.000000 -0.182084 0.000000
v 1.000000 0.182084 0.000000
v 0.980785 -0.182084 0.195090
v 0.980785 0.182084 0.195090
v -0.980785 -0.182084 0.195090
v -0.980785 0.182084 0.195090
v -1.000000 -0.182084 0.000000
v -1.000000 0.182084 0.000000
v -0.980785 -0.182084 -0.195090
v -0.980785 0.182084 -0.195090
v -0.923880 -0.182084 -0.382683
v -0.923880 0.182084 -0.382683
v -0.831470 -0.182084 -0.555570
v -0.831470 0.182084 -0.555570
v -0.707107 -0.182084 -0.707107
v -0.707107 0.182084 -0.707107
v -0.555570 -0.182084 -0.831470
v -0.555570 0.182084 -0.831470
v -0.382683 -0.182084 -0.923880
v -0.382683 0.182084 -0.923880
v -0.195090 -0.182084 -0.980785
v -0.195090 0.182084 -0.980785
v -0.000000 0.000000 -1.896117
v 0.369914 0.000000 -1.859684
v 0.725613 0.000000 -1.751784
v 1.053426 0.000000 -1.576564
v 1.340757 0.000000 -1.340757
v 1.576564 0.000000 -1.053426
v 1.751784 0.000000 -0.725613
v 1.859684 0.000000 -0.369914
v 1.896117 0.000000 0.000000
v 1.859684 0.000000 0.369914
v -1.859684 0.000000 0.369914
v -1.896117 0.000000 0.000000
v -1.859684 0.000000 -0.369914
v -1.751784 0.000000 -0.725613
v -1.576564 0.000000 -1.053426
v -1.340757 0.000000 -1.340757
v -1.053426 0.000000 -1.576564
v -0.725613 0.000000 -1.751784
v -0.369914 0.000000 -1.859684
vn -0.0000 -0.9800 -0.1991
vn -0.0000 0.9800 -0.1991
vn 0.0388 -0.9800 -0.1953
vn 0.0388 0.9800 -0.1953
vn 0.0762 -0.9800 -0.1840
vn 0.0762 0.9800 -0.1840
vn 0.1106 -0.9800 -0.1656
vn 0.1106 0.9800 -0.1656
vn 0.1408 -0.9800 -0.1408
vn 0.1408 0.9800 -0.1408
vn 0.1656 -0.9800 -0.1106
vn 0.1656 0.9800 -0.1106
vn 0.1840 -0.9800 -0.0762
vn 0.1840 0.9800 -0.0762
vn 0.1953 -0.9800 -0.0388
vn 0.1953 0.9800 -0.0388
vn 0.1991 -0.9800 -0.0000
vn 0.1991 0.9800 -0.0000
vn 0.1991 -0.9798 0.0196
vn 0.1991 0.9798 0.0196
vn -0.1991 -0.9798 0.0196
vn -0.1991 0.9798 0.0196
vn -0.1991 -0.9800 -0.0000
vn -0.1991 0.9800 -0.0000
vn -0.1953 -0.9800 -0.0388
vn -0.1953 0.9800 -0.0388
vn -0.1840 -0.9800 -0.0762
vn -0.1840 0.9800 -0.0762
vn -0.1656 -0.9800 -0.1106
vn -0.1656 0.9800 -0.1106
vn -0.1408 -0.9800 -0.1408
vn -0.1408 0.9800 -0.1408
vn -0.1106 -0.9800 -0.1656
vn -0.1106 0.9800 -0.1656
vn -0.0762 -0.9800 -0.1840
vn -0.0762 0.9800 -0.1840
vn -0.0388 -0.9800 -0.1953
vn -0.0388 0.9800 -0.1953
vn -0.0000 -0.0000 -1.0000
vn 0.1951 -0.0000 -0.9808
vn 0.3827 -0.0000 -0.9239
vn 0.5556 -0.0000 -0.8315
vn 0.7071 -0.0000 -0.7071
vn 0.8315 -0.0000 -0.5556
vn 0.9239 -0.0000 -0.3827
vn 0.9808 -0.0000 -0.1951
vn 1.0000 -0.0000 -0.0000
vn 0.9952 -0.0000 0.0980
vn -0.9952 -0.0000 0.0980
vn -1.0000 -0.0000 -0.0000
vn -0.9808 -0.0000 -0.1951
vn -0.9239 -0.0000 -0.3827
vn -0.8315 -0.0000 -0.5556
vn -0.7071 -0.0000 -0.7071
vn -0.5556 -0.0000 -0.8315
vn -0.3827 -0.0000 -0.9239
vn -0.1951 -0.0000 -0.9808
vt 0.500856 0.999999
vt 0.499144 0.000001
vt 0.554700 -0.000094
vt 0.556411 0.999904
vt 0.610255 -0.000189
vt 0.611967 0.999809
vt 0.665811 -0.000284
vt 0.667522 0.999714
vt 0.721366 -0.000380
vt 0.723078 0.999619
vt 0.776922 -0.000475
vt 0.778633 0.999524
vt 0.832477 -0.000570
vt 0.834188 0.999429
vt 0.888033 -0.000665
vt 0.889744 0.999334
vt 0.943588 -0.000760
vt 0.945299 0.999239
vt 0.999144 -0.000855
vt 1.000855 0.999144
vt 0.000856 1.000855
vt -0.000855 0.000856
vt 0.054701 0.000761
vt 0.056412 1.000760
vt 0.110256 0.000666
vt 0.111967 1.000665
vt 0.165812 0.000571
vt 0.167523 1.000570
vt 0.221367 0.000476
vt 0.223078 1.000475
vt 0.276922 0.000381
vt 0.278634 1.000380
vt 0.332478 0.000286
vt 0.334189 1.000284
vt 0.388033 0.000191
vt 0.389745 1.000189
vt 0.443589 0.000096
vt 0.445300 1.000094
s 1
f 39/1/39 2/2/2 4/3/4 40/4/40
f 40/4/40 4/3/4 6/5/6 41/6/41
f 41/6/41 6/5/6 8/7/8 42/8/42
f 42/8/42 8/7/8 10/9/10 43/10/43
f 43/10/43 10/9/10 12/11/12 44/12/44
f 44/12/44 12/11/12 14/13/14 45/14/45
f 45/14/45 14/13/14 16/15/16 46/16/46
f 46/16/46 16/15/16 18/17/18 47/18/47
f 47/18/47 18/17/18 20/19/20 48/20/48
f 49/21/49 22/22/22 24/23/24 50/24/50
f 50/24/50 24/23/24 26/25/26 51/26/51
f 51/26/51 26/25/26 28/27/28 52/28/52
f 52/28/52 28/27/28 30/29/30 53/30/53
f 53/30/53 30/29/30 32/31/32 54/32/54
f 54/32/54 32/31/32 34/33/34 55/34/55
f 55/34/55 34/33/34 36/35/36 56/36/56
f 56/36/56 36/35/36 38/37/38 57/38/57
f 57/38/57 38/37/38 2/2/2 39/1/39
f 37/38/37 57/37/57 39/2/39 1/1/1
f 35/36/35 56/35/56 57/37/57 37/38/37
f 33/34/33 55/33/55 56/35/56 35/36/35
f 31/32/31 54/31/54 55/33/55 33/34/33
f 29/30/29 53/29/53 54/31/54 31/32/31
f 27/28/27 52/27/52 53/29/53 29/30/29
f 25/26/25 51/25/51 52/27/52 27/28/27
f 23/24/23 50/23/50 51/25/51 25/26/25
f 21/21/21 49/22/49 50/23/50 23/24/23
f 17/18/17 47/17/47 48/19/48 19/20/19
f 15/16/15 46/15/46 47/17/47 17/18/17
f 13/14/13 45/13/45 46/15/46 15/16/15
f 11/12/11 44/11/44 45/13/45 13/14/13
f 9/10/9 43/9/43 44/11/44 11/12/11
f 7/8/7 42/7/42 43/9/43 9/10/9
f 5/6/5 41/5/41 42/7/42 7/8/7
f 3/4/3 40/3/40 41/5/41 5/6/5
f 1/1/1 39/2/39 40/3/40 3/4/3
